<?xml version="1.0" encoding="UTF-8"?>
<svg xmlns="http://www.w3.org/2000/svg" xmlns:xlink="http://www.w3.org/1999/xlink" width="96pt" height="96pt" viewBox="0 0 96 96" version="1.1">
<g id="surface1">
<path style=" stroke:none;fill-rule:nonzero;fill:#DB8509;fill-opacity:1;" d="M 56 76.003906 C 56 80.421875 52.417969 84.003906 48 84.003906 C 43.582031 84.003906 40 80.421875 40 76.003906 C 40 71.582031 43.582031 68.003906 48 68.003906 C 52.417969 68.003906 56 71.582031 56 76.003906 Z "/>
<path style=" stroke:none;fill-rule:nonzero;fill:#DB8509;fill-opacity:1;" d="M 52 22 C 52 24.207031 50.207031 26 48 26 C 45.792969 26 44 24.207031 44 22 L 44 14 C 44 11.792969 45.792969 10 48 10 C 50.207031 10 52 11.792969 52 14 Z "/>
<path style=" stroke:none;fill-rule:nonzero;fill:#BC6F0A;fill-opacity:1;" d="M 55.773438 77.820313 C 55.910156 77.234375 56 76.628906 56 76.003906 C 56 75.234375 55.859375 74.511719 55.65625 73.808594 C 53.21875 73.929688 50.664063 74 48 74 C 45.335938 74 42.78125 73.929688 40.34375 73.808594 C 40.140625 74.511719 40 75.234375 40 76.003906 C 40 76.628906 40.089844 77.234375 40.226563 77.820313 C 43.167969 77.957031 45.851563 78 48 78 C 50.148438 78 52.832031 77.957031 55.773438 77.820313 Z "/>
<path style=" stroke:none;fill-rule:nonzero;fill:#FFC107;fill-opacity:1;" d="M 66 66 L 66 33.601563 C 66 23.660156 57.941406 15.601563 48 15.601563 C 38.058594 15.601563 30 23.660156 30 33.601563 L 30 66 Z "/>
<path style=" stroke:none;fill-rule:nonzero;fill:#FFC107;fill-opacity:1;" d="M 82 66 C 82 70.417969 67.882813 74 48 74 C 28.117188 74 14 70.417969 14 66 C 14 61.582031 28.117188 58 48 58 C 67.882813 58 82 61.582031 82 66 Z "/>
<path style=" stroke:none;fill-rule:nonzero;fill:#FFC107;fill-opacity:1;" d="M 14 66 C 14 62.003906 30 47.996094 30 42 C 30 36.003906 66 35.996094 66 42 C 66 48.003906 82 61.996094 82 66 C 82 70.003906 14 69.996094 14 66 Z "/>
<path style=" stroke:none;fill-rule:nonzero;fill:#FFE082;fill-opacity:1;" d="M 18.550781 58.847656 C 17.566406 60.035156 16.691406 61.140625 15.960938 62.148438 C 19.203125 63.457031 32.261719 68.273438 49.085938 68.273438 C 58.574219 68.273438 69.261719 66.710938 80.035156 62.144531 C 79.3125 61.144531 78.445313 60.050781 77.472656 58.878906 C 51.398438 69.449219 25.394531 61.359375 18.550781 58.847656 Z "/>
</g>
</svg>
